<svg width="36" height="33" viewBox="0 0 36 33" fill="none" xmlns="http://www.w3.org/2000/svg">
    <path
        d="M9 32.4012C11.7614 32.4012 14 30.1627 14 27.4012V24.5574C14 22.3483 15.7909 20.5574 18 20.5574C20.2091 20.5574 22 22.3483 22 24.5574V27.4012C22 30.1627 24.2386 32.4012 27 32.4012C29.7614 32.4012 32 30.1627 32 27.4012V18.2617C32 17.3492 32.7397 16.6095 33.6522 16.6095C35.1717 16.6095 35.8855 14.7312 34.7494 13.722L21.3206 1.79336C19.4265 0.110911 16.5735 0.110912 14.6794 1.79336L1.25056 13.722C0.114537 14.7312 0.82831 16.6095 2.34781 16.6095C3.26029 16.6095 4 17.3492 4 18.2617V27.4012C4 30.1627 6.23858 32.4012 9 32.4012Z"
        fill="white" />
</svg>