<svg xmlns="http://www.w3.org/2000/svg" width="140" height="141" viewBox="0 0 140 141" fill="none">
  <path d="M132.184 45.1406H114.401V62.9232H132.184V45.1406Z" fill="#65A137"/>
  <path d="M114.401 45.1406H96.6182V62.9232H114.401V45.1406ZM61.0531 45.1406H43.2705V62.9232H61.0531V45.1406Z" fill="#3F2B1F"/>
  <path d="M114.401 80.7059V62.9233H96.6182V80.7059H114.401Z" fill="#453321"/>
  <path d="M114.401 62.9233V80.7059H132.184V62.9233H114.401Z" fill="#60452E"/>
  <path d="M132.184 80.7058H114.401V98.4884H132.184V80.7058Z" fill="#2F1F13"/>
  <path d="M96.6185 80.7059V62.9233H78.8359V80.7059H96.6185Z" fill="#90633E"/>
  <path d="M114.401 80.7058H96.6182V98.4884H114.401V80.7058Z" fill="#523723"/>
  <path d="M96.6185 98.4884V80.7058H78.8359V98.4884H96.6185Z" fill="#614128"/>
  <path d="M114.401 98.4885H96.6182V116.271H114.401V98.4885Z" fill="#A2643D"/>
  <path d="M96.6185 62.9232V45.1406H78.8359V62.9232H96.6185Z" fill="#5E9730"/>
  <path d="M96.6185 134.054V116.271H78.8359V134.054H96.6185Z" fill="#704527"/>
  <path d="M96.6185 116.271V98.4885H78.8359V116.271H96.6185Z" fill="#51321D"/>
  <path d="M43.2705 45.1407H61.0531V27.3582H43.2705V45.1407Z" fill="#72AD3E"/>
  <path d="M43.2708 45.1407V27.3582H25.4883V45.1407H43.2708Z" fill="#6EAB3D"/>
  <path d="M61.0537 27.3582V45.1407H78.8363V27.3582H61.0537Z" fill="#453123"/>
  <path d="M78.8363 45.1406H61.0537V62.9232H78.8363V45.1406Z" fill="#432D1F"/>
  <path d="M25.4883 62.9233V80.7059H43.2708V62.9233H25.4883Z" fill="#67A539"/>
  <path d="M25.4883 80.7058V98.4884H43.2708V80.7058H25.4883Z" fill="#74482D"/>
  <path d="M78.8363 80.7059V62.9233H61.0537V80.7059H78.8363Z" fill="#6A4B2E"/>
  <path d="M43.2705 62.9233V80.7059H61.0531V62.9233H43.2705Z" fill="#64472E"/>
  <path d="M61.0531 80.7058H43.2705V98.4884H61.0531V80.7058Z" fill="#38281A"/>
  <path d="M61.0531 98.4885H43.2705V116.271H61.0531V98.4885Z" fill="#A8713D"/>
  <path d="M78.8363 80.7058H61.0537V98.4884H78.8363V80.7058Z" fill="#3F2F1D"/>
  <path d="M78.8363 98.4885H61.0537V116.271H78.8363V98.4885Z" fill="#AC7043"/>
  <path d="M43.2708 98.4885H25.4883V116.271H43.2708V98.4885Z" fill="#4F3420"/>
  <path d="M43.2708 62.9232V45.1406H25.4883V62.9232H43.2708Z" fill="#69A83B"/>
  <path d="M78.8363 134.054V116.271H61.0537V134.054H78.8363Z" fill="#4A2E18"/>
  <path d="M43.2705 116.271V134.054H61.0531V116.271H43.2705Z" fill="#472B1B"/>
  <path d="M96.6182 27.3582V45.1407H114.401V27.3582H96.6182Z" fill="#86C14D"/>
  <path d="M96.6185 45.1407V27.3582H78.8359V45.1407H96.6185Z" fill="#79BA45"/>
  <path d="M96.6185 27.3582V9.57568H78.8359V27.3582H96.6185Z" fill="#77B53C"/>
  <path d="M61.0531 9.57568H43.2705V27.3582H61.0531V9.57568Z" fill="#8DC34F"/>
  <path d="M78.8363 9.57568H61.0537V27.3582H78.8363V9.57568Z" fill="#79B742"/>
  <path d="M119.41 20.8526C117.795 19.2374 116.135 17.7184 114.401 16.2588V27.3581H125.227C123.47 25.1501 121.522 22.9643 119.41 20.8526Z" fill="#AFCE69"/>
  <path d="M96.6182 5.41895V9.57562H104.983C102.294 7.99001 99.5152 6.60445 96.6182 5.41895Z" fill="#6E993D"/>
  <path d="M96.6185 9.57559V5.41892C91.9432 3.49247 87.0011 2.11432 81.8219 1.28447C80.8439 1.12887 79.851 0.988094 78.8359 0.876953V9.57559H96.6185Z" fill="#85B34C"/>
  <path d="M104.983 9.57568H96.6182V27.3582H114.401V16.259C111.422 13.7546 108.273 11.5169 104.983 9.57568Z" fill="#B2D470"/>
  <path d="M132.184 37.961C131.747 37.1312 131.243 36.2272 130.724 35.3381C129.124 32.6114 127.301 29.9589 125.227 27.3582H114.401V45.1407H132.184V37.961Z" fill="#65A138"/>
  <path d="M132.184 45.1407H135.436C134.614 42.9771 133.643 40.8061 132.547 38.6574C132.436 38.4426 132.324 38.2277 132.184 37.9609V45.1407Z" fill="#98BF5D"/>
  <path d="M135.436 45.1406H132.184V62.9232H139.549C139.208 59.3963 138.615 55.9213 137.77 52.5278C137.607 51.8832 137.422 51.1941 137.229 50.5124C136.859 49.2158 136.437 47.9043 135.977 46.6077C135.807 46.1335 135.636 45.6593 135.436 45.1406Z" fill="#3C2B21"/>
  <path d="M132.184 62.9233V80.7059H139.2C139.534 78.2238 139.756 75.6675 139.845 73.052C139.875 72.1555 139.889 71.2367 139.889 70.3105C139.889 70.2142 139.889 70.1105 139.889 70.0141C139.889 69.9623 139.889 69.9178 139.889 69.8659C139.875 67.5246 139.763 65.2203 139.549 62.9233H132.184Z" fill="#4D4D4D"/>
  <path d="M134.207 98.4885H132.184V102.667C132.91 101.312 133.584 99.9111 134.207 98.4885ZM99.2714 134.054H96.6188V135.217C97.5302 134.839 98.4341 134.446 99.2714 134.054ZM43.2711 135.21V134.054H40.626C41.5003 134.461 42.382 134.846 43.2711 135.21Z" fill="#666666"/>
  <path d="M132.184 98.4884H134.206C134.599 97.6141 134.97 96.7101 135.318 95.7988C137.17 91.0123 138.459 85.9887 139.2 80.7058H132.184V98.4884Z" fill="#433323"/>
  <path d="M132.184 102.667V98.4885H114.401V116.271H122.707C126.494 111.996 129.65 107.469 132.184 102.667Z" fill="#9A5F3A"/>
  <path d="M114.401 124.377C116.12 122.925 117.787 121.398 119.41 119.776C120.566 118.62 121.67 117.449 122.707 116.271H114.401V124.377Z" fill="#683E24"/>
  <path d="M114.401 124.377V116.271H96.6182V134.054H99.2707C104.665 131.542 109.696 128.311 114.401 124.377Z" fill="#2B1D12"/>
  <path d="M96.6185 135.217V134.054H78.8359V139.752C80.7105 139.529 82.4443 139.255 84.1337 138.929C85.3118 138.699 86.475 138.44 87.6013 138.166C90.6984 137.388 93.7066 136.402 96.6185 135.217Z" fill="#764726"/>
  <path d="M76.1096 0.610233C75.6354 0.573186 75.1612 0.536139 74.687 0.506501C74.5907 0.499092 74.5018 0.499092 74.4055 0.491683C72.968 0.410179 71.4639 0.365723 69.945 0.365723C68.5594 0.365723 67.1887 0.40277 65.8105 0.476864C65.4623 0.491682 65.1141 0.513911 64.7288 0.536139C64.4102 0.558367 64.0916 0.580596 63.7804 0.610233C62.869 0.684327 61.9577 0.77324 61.0537 0.876971V9.57561H78.8363V0.876971C77.9397 0.76583 77.0284 0.684327 76.1096 0.610233Z" fill="#96BC56"/>
  <path d="M61.0531 0.876953C54.8069 1.58826 48.8794 3.10718 43.2705 5.41892V9.57559H61.0531V0.876953Z" fill="#B7CE76"/>
  <path d="M43.2709 9.57562V5.41895C40.4035 6.58963 37.6175 7.9826 34.9131 9.57562H43.2709Z" fill="#B4C96F"/>
  <path d="M43.2708 27.3582V9.57568H34.913C31.6455 11.5021 28.5039 13.7324 25.4883 16.2664V27.3582H43.2708Z" fill="#79B646"/>
  <path d="M25.4886 16.2664C23.7845 17.6964 22.1173 19.2227 20.4873 20.8528C18.383 22.957 16.4492 25.1206 14.6709 27.3582H25.4886V16.2664Z" fill="#8EBD51"/>
  <path d="M14.6709 27.3582C11.9739 30.7443 9.64732 34.2859 7.70605 37.9684V45.1407H25.4886V27.3582H14.6709Z" fill="#639F36"/>
  <path d="M7.70585 45.1408V37.9685C6.46848 40.3099 5.3793 42.7179 4.45312 45.1408H7.70585Z" fill="#69A53C"/>
  <path d="M7.70617 45.1406H4.45344C2.29731 50.794 0.933976 56.7067 0.348633 62.9232H7.70617V45.1406Z" fill="#7DA745"/>
  <path d="M25.4886 45.1406H7.70605V62.9232H25.4886V45.1406Z" fill="#62A039"/>
  <path d="M25.4883 80.7059V62.9233H7.70578H0.348242C0.116081 65.3388 0 67.8012 0 70.3105C0 73.8893 0.237101 77.3791 0.696484 80.7059H7.70578H25.4883Z" fill="#3F2F23"/>
  <path d="M7.70558 80.7058H0.696289C1.56319 87.026 3.2303 92.9387 5.69023 98.4884H7.70558V80.7058Z" fill="#72452C"/>
  <path d="M7.70605 98.4885V102.66C10.2623 107.491 13.4409 112.04 17.1901 116.271H25.4886V98.4885H7.70605Z" fill="#514E4B"/>
  <path d="M7.70579 102.66V98.4885H5.69043C6.32023 99.9334 6.98708 101.304 7.70579 102.66Z" fill="#4B301C"/>
  <path d="M25.4886 80.7058H7.70605V98.4884H25.4886V80.7058Z" fill="#48311E"/>
  <path d="M69.5004 140.255H69.945C71.4713 140.255 72.9829 140.211 74.4055 140.137C74.5018 140.129 74.5907 140.122 74.687 140.122C74.9389 140.1 75.1908 140.085 75.4354 140.07C75.6799 140.055 75.9244 140.033 76.1096 140.018C77.058 139.944 77.9916 139.848 78.8363 139.752V134.054H61.0537V139.752C61.9651 139.855 62.869 139.944 63.7804 140.018C64.1064 140.041 64.4176 140.063 64.7288 140.085C65.1141 140.115 65.4623 140.137 65.8105 140.152H65.8698C67.1294 140.218 68.3297 140.255 69.5004 140.255Z" fill="#2C1D0F"/>
  <path d="M43.2705 134.054V135.21C48.9017 137.521 54.8218 139.033 61.0531 139.752V134.054H43.2705Z" fill="#4E2E1B"/>
  <path d="M43.2708 134.054V116.271H25.4883V124.369C30.2748 128.371 35.3206 131.601 40.6257 134.054H43.2708Z" fill="#5E3921"/>
  <path d="M20.4866 119.776C22.1241 121.413 23.806 122.954 25.488 124.369V116.271H17.1895C18.2712 117.494 19.353 118.642 20.4866 119.776Z" fill="#5D3A24"/>
</svg>