<svg xmlns="http://www.w3.org/2000/svg" width="175" height="238" viewBox="0 0 175 238" fill="none">
  <path d="M56.357 184.197C56.357 184.197 47.2954 189.47 62.8143 191.249C81.618 193.397 91.2271 193.089 111.943 189.173C111.943 189.173 117.401 192.585 125.008 195.543C78.5519 215.446 19.873 194.389 56.357 184.197ZM50.6771 158.221C50.6771 158.221 40.5111 165.747 56.0433 167.355C76.1301 169.429 91.9893 169.598 119.446 164.313C119.446 164.313 123.234 168.163 129.201 170.265C73.045 186.689 10.4978 171.558 50.6771 158.221Z" fill="#0074BD"/>
  <path d="M98.5286 114.15C109.982 127.333 95.5252 139.185 95.5252 139.185C95.5252 139.185 124.588 124.185 111.244 105.393C98.7757 87.8761 89.218 79.1757 140.964 49.1643C140.964 49.1662 59.7369 69.4469 98.5286 114.15Z" fill="#EA2D2E"/>
  <path d="M159.968 203.413C159.968 203.413 166.676 208.945 152.577 213.22C125.771 221.34 40.9828 223.789 17.4344 213.545C8.97354 209.861 24.8461 204.753 29.8397 203.675C35.0463 202.548 38.0193 202.753 38.0193 202.753C28.6041 196.125 -22.8342 215.775 11.8952 221.411C106.6 236.762 184.529 214.497 159.968 203.413ZM60.7198 131.302C60.7198 131.302 17.596 141.546 45.4499 145.27C57.2127 146.844 80.6508 146.483 102.498 144.65C120.347 143.151 138.259 139.948 138.259 139.948C138.259 139.948 131.971 142.645 127.417 145.751C83.6162 157.272 -0.977668 151.906 23.3786 140.128C43.9691 130.169 60.7198 131.302 60.7198 131.302ZM138.081 174.542C182.602 151.414 162.015 129.187 147.646 132.181C144.133 132.912 142.557 133.549 142.557 133.549C142.557 133.549 143.865 131.498 146.359 130.616C174.783 120.627 196.64 160.086 137.191 175.715C137.191 175.711 137.874 175.093 138.081 174.542Z" fill="#0074BD"/>
  <path d="M111.243 0.697266C111.243 0.697266 135.894 25.3633 87.8561 63.2806C49.3325 93.7064 79.072 111.05 87.8428 130.875C65.3532 110.586 48.8572 92.7236 59.9224 76.1002C76.1713 51.7041 121.186 39.871 111.243 0.697266Z" fill="#EA2D2E"/>
  <path d="M65.096 237.234C107.821 239.965 173.447 235.713 175 215.495C175 215.495 172.014 223.16 139.687 229.241C103.217 236.107 58.2261 235.306 31.5508 230.902C31.5508 230.904 37.0159 235.428 65.096 237.234Z" fill="#0074BD"/>
</svg>