<svg xmlns="http://www.w3.org/2000/svg" width="36" height="33" viewBox="0 0 36 33" fill="none">
  <path d="M9 32.4012C11.7614 32.4012 14 30.1627 14 27.4012V24.5574C14 22.3483 15.7909 20.5574 18 20.5574C20.2091 20.5574 22 22.3483 22 24.5574V27.4012C22 30.1627 24.2386 32.4012 27 32.4012C29.7614 32.4012 32 30.1627 32 27.4012V18.2617C32 17.3492 32.7397 16.6095 33.6522 16.6095C35.1717 16.6095 35.8855 14.7312 34.7494 13.722L21.3206 1.79336C19.4265 0.110911 16.5735 0.110912 14.6794 1.79336L1.25056 13.722C0.114537 14.7312 0.82831 16.6095 2.34781 16.6095C3.26029 16.6095 4 17.3492 4 18.2617V27.4012C4 30.1627 6.23858 32.4012 9 32.4012Z" fill="url(#paint0_linear_938_1269)"/>
  <path d="M13.5 27.4012C13.5 29.8865 11.4853 31.9012 9 31.9012C6.51472 31.9012 4.5 29.8865 4.5 27.4012V18.2617C4.5 17.073 3.53643 16.1095 2.34781 16.1095C1.28815 16.1095 0.790386 14.7996 1.58262 14.0959L15.0115 2.16718C16.7161 0.652973 19.2839 0.652972 20.9885 2.16717L34.4174 14.0959C35.2096 14.7996 34.7118 16.1095 33.6522 16.1095C32.4636 16.1095 31.5 17.0731 31.5 18.2617V27.4012C31.5 29.8865 29.4853 31.9012 27 31.9012C24.5147 31.9012 22.5 29.8865 22.5 27.4012V24.5574C22.5 22.0721 20.4853 20.0574 18 20.0574C15.5147 20.0574 13.5 22.0721 13.5 24.5574V27.4012Z" stroke="#684479" stroke-opacity="0.96"/>
  <defs>
    <linearGradient id="paint0_linear_938_1269" x1="13" y1="17" x2="24.5" y2="38.5" gradientUnits="userSpaceOnUse">
      <stop stop-color="#6C07EC"/>
      <stop offset="0.9999" stop-color="#0D6AD8" stop-opacity="0.94"/>
      <stop offset="1" stop-opacity="0"/>
    </linearGradient>
  </defs>
</svg>