<svg width="40" height="40" viewBox="0 0 40 40" fill="none" xmlns="http://www.w3.org/2000/svg">
<path d="M21.5239 0.0605295C21.5127 0.0605295 21.5034 0.0605295 21.4941 0.0605295C21.3991 0.0512157 21.3041 0.0456274 21.2109 0.0400391C21.3004 0.0437646 21.3935 0.0512157 21.4866 0.056804C21.4997 0.056804 21.5109 0.056804 21.5239 0.0605295Z" fill="#612700"/>
<path d="M39.8255 22.6561C39.8199 22.6952 39.8162 22.7325 39.8088 22.7697C39.7473 23.2335 39.6691 23.6881 39.5722 24.137C39.5554 24.2227 39.5368 24.3065 39.5144 24.3903L35.973 25.2472C35.7159 26.0407 35.3992 26.8045 35.0304 27.5365L36.9362 30.6362C36.8896 30.7144 36.8393 30.7908 36.7908 30.869C36.5356 31.2602 36.2692 31.6477 35.9823 32.0258C35.96 32.0575 35.9376 32.0873 35.9134 32.119C35.8892 32.1488 35.8668 32.1786 35.8408 32.2084C35.5595 32.5809 35.2633 32.9367 34.9596 33.2813C34.9 33.3465 34.8441 33.4117 34.7863 33.4732L31.2822 32.4636C30.6693 33.0187 30.0173 33.5272 29.3299 33.9854L29.4547 37.6234C29.3764 37.6681 29.2945 37.711 29.2106 37.752C28.7971 37.9662 28.3705 38.1711 27.9364 38.3574C27.901 38.3741 27.8675 38.3909 27.8321 38.4058C27.7967 38.4207 27.7613 38.4356 27.724 38.4486C27.2956 38.6331 26.8634 38.797 26.4293 38.9441C26.3455 38.9721 26.2654 38.9982 26.1815 39.0242L23.6386 36.4182C22.8376 36.5971 22.0179 36.7163 21.187 36.774L19.4937 39.9947C19.4024 39.9947 19.3111 39.9892 19.2179 39.9873C18.7541 39.9687 18.2828 39.9351 17.8114 39.8811C17.7723 39.8793 17.7351 39.8755 17.6959 39.8699C17.6568 39.8662 17.6196 39.8625 17.5823 39.855C17.1184 39.8029 16.6602 39.7321 16.2112 39.6445C16.1255 39.6278 16.0417 39.611 15.9578 39.5905L15.0394 36.0643C14.2402 35.8203 13.469 35.5166 12.7313 35.1627L9.66677 37.1224C9.58853 37.0758 9.51215 37.0273 9.43204 36.9789C9.03524 36.7312 8.64403 36.4704 8.26213 36.191C8.23046 36.1686 8.19879 36.1481 8.16712 36.1239C8.13731 36.0997 8.10564 36.0792 8.07584 36.0531C7.69953 35.7774 7.33812 35.4906 6.98789 35.1925C6.92083 35.1329 6.85563 35.0789 6.79415 35.0193L7.74237 31.4986C7.17791 30.8988 6.65816 30.2562 6.19056 29.5763L2.55042 29.7625C2.50385 29.6843 2.45914 29.6042 2.41443 29.5222C2.19461 29.1124 1.98223 28.6896 1.78849 28.2574C1.76986 28.222 1.75496 28.1885 1.73819 28.1512C1.72329 28.1177 1.70652 28.0823 1.69348 28.0469C1.50346 27.6204 1.33021 27.1901 1.17559 26.7598C1.14765 26.6759 1.11784 26.594 1.0899 26.5139L3.65327 23.9265C3.46139 23.1292 3.32726 22.3115 3.25461 21.4807L0.00195312 19.8433C0.00195312 19.752 0.00195312 19.6607 0.00567896 19.5676C0.0149935 19.1019 0.0410744 18.6306 0.0857844 18.1594C0.0876473 18.1202 0.0913732 18.083 0.095099 18.0439C0.0988248 18.0047 0.100688 17.9675 0.108139 17.9284C0.150987 17.4645 0.214326 17.0063 0.294431 16.5555C0.309334 16.468 0.324238 16.3823 0.342867 16.2984L3.8526 15.3186C4.08547 14.5139 4.37422 13.739 4.71513 12.9958L2.69946 9.96689C2.74417 9.88865 2.79074 9.80855 2.83918 9.73032C3.07949 9.32982 3.33471 8.93305 3.6067 8.54559C3.62719 8.5102 3.64768 8.48226 3.6719 8.45059C3.69425 8.41893 3.71475 8.38726 3.74083 8.35745C4.00909 7.97559 4.29039 7.61048 4.58287 7.25656C4.63875 7.18763 4.69278 7.12244 4.75053 7.05724L8.28821 7.94392C8.87875 7.36832 9.51401 6.83743 10.1828 6.35684L9.93317 2.72071C10.0095 2.67414 10.0897 2.62944 10.1716 2.58287C10.5777 2.35375 10.995 2.1358 11.4235 1.93462C11.4589 1.91599 11.4906 1.89923 11.5278 1.88246C11.5614 1.86756 11.5968 1.8508 11.6321 1.8359C12.055 1.63844 12.4798 1.45962 12.9101 1.29569C12.9921 1.26403 13.074 1.23422 13.156 1.20628L15.7865 3.72288C16.5801 3.51611 17.396 3.36896 18.225 3.28327L19.8085 0.00292969C19.8998 0.00292969 19.9911 0.00292969 20.0842 0.00292969C20.4568 0.00292969 20.8312 0.0159691 21.2113 0.0401851C21.3044 0.0457734 21.3994 0.0513617 21.4944 0.0606756C21.5037 0.0606756 21.5131 0.0606756 21.5242 0.0606756C21.5336 0.0606756 21.5429 0.0625383 21.5522 0.0625383C21.5578 0.0625383 21.5615 0.0625383 21.5671 0.0625383C21.6155 0.0662639 21.6658 0.0699894 21.7143 0.0755777H21.7236C21.772 0.081166 21.8186 0.0830288 21.867 0.0886171C21.9527 0.097931 22.0384 0.105382 22.1222 0.114696C22.1353 0.116559 22.1465 0.118421 22.1576 0.118421L22.193 0.12401C22.2154 0.12401 22.2359 0.127735 22.2564 0.129598C22.275 0.131461 22.2936 0.135186 22.3122 0.135186C22.3998 0.146363 22.4855 0.15754 22.5731 0.168716C22.6792 0.183618 22.7854 0.196658 22.8898 0.213423C22.9307 0.215285 22.9661 0.220874 23.0053 0.226462C23.0444 0.23205 23.0816 0.237639 23.1189 0.246953C23.2009 0.259992 23.281 0.271169 23.3611 0.286071C23.7392 0.347542 24.1137 0.42019 24.4825 0.505878C24.5682 0.526368 24.6521 0.546859 24.7359 0.569212L25.5295 4.12338C26.3194 4.3972 27.0795 4.72691 27.8041 5.10692L30.9357 3.25533C31.0121 3.30376 31.0885 3.35592 31.1648 3.40621C31.5505 3.667 31.9342 3.94269 32.3049 4.23514C32.3366 4.2575 32.3683 4.27985 32.3981 4.30593C32.4279 4.33014 32.4577 4.3525 32.4875 4.38044C32.8545 4.66917 33.2066 4.96907 33.5438 5.28016C33.609 5.33977 33.6705 5.39751 33.7319 5.45712L32.6645 8.94236C33.2066 9.56453 33.704 10.224 34.1492 10.9188L37.7931 10.8592C37.8359 10.9393 37.8751 11.0231 37.9179 11.105C38.1247 11.5223 38.3222 11.9507 38.4991 12.3904C38.5159 12.4257 38.5308 12.4593 38.5457 12.4947C38.5606 12.5301 38.5737 12.5673 38.5886 12.6027C38.7618 13.0367 38.9202 13.4708 39.0599 13.9085C39.086 13.9942 39.112 14.0743 39.1363 14.1581L36.4853 16.6542C36.6493 17.4589 36.7554 18.2786 36.7983 19.1131L39.9876 20.8622C39.9857 20.9516 39.9783 21.0429 39.9746 21.1379C39.9485 21.6036 39.9056 22.073 39.8442 22.5424C39.8404 22.5816 39.8367 22.6188 39.8311 22.6579L39.8255 22.6561Z" fill="#612700"/>
<path d="M21.7136 0.0755394C21.6651 0.0699511 21.6148 0.0662255 21.5664 0.0625C21.5813 0.0625 21.5944 0.0643628 21.6093 0.0643628C21.6446 0.0680883 21.6782 0.0699511 21.7136 0.0736766V0.0755394Z" fill="#612700"/>
<path d="M22.254 0.129341C22.2335 0.129341 22.213 0.125615 22.1907 0.123752L22.1553 0.118164C22.1888 0.12189 22.2205 0.123752 22.254 0.129341Z" fill="#612700"/>
<path d="M23.3584 0.28565C23.2783 0.270748 23.1963 0.259571 23.1162 0.246532C23.079 0.237218 23.0436 0.23163 23.0026 0.226041C22.9616 0.220453 22.9281 0.214865 22.8871 0.213002C22.7828 0.1981 22.6747 0.183198 22.5704 0.168295C22.4828 0.157119 22.3971 0.145942 22.3096 0.134766C22.576 0.16457 22.8405 0.1981 23.1013 0.239081C23.187 0.253983 23.2727 0.267022 23.3565 0.283787L23.3584 0.28565Z" fill="#612700"/>
<path d="M20.8052 0.020056C20.794 0.020056 20.7847 0.020056 20.7754 0.020056C20.6803 0.0144677 20.5853 0.0107422 20.4922 0.0107422C20.5816 0.0107422 20.6748 0.0144677 20.7698 0.0181933C20.7828 0.0181933 20.794 0.0181933 20.807 0.020056H20.8052Z" fill="#C56328"/>
<path d="M39.908 21.9427C39.9043 21.9818 39.9006 22.0191 39.895 22.0582C39.8484 22.5239 39.7869 22.9821 39.7087 23.4329C39.6956 23.5186 39.6789 23.6043 39.6602 23.6881L36.1524 24.6717C35.9232 25.4745 35.6345 26.2494 35.2917 26.9945L37.3074 30.0234C37.2645 30.1035 37.2161 30.1817 37.1695 30.26C36.9292 30.6605 36.6759 31.0572 36.402 31.4447C36.3815 31.4782 36.3592 31.508 36.3368 31.5397C36.3144 31.5714 36.2921 31.6012 36.2679 31.631C35.9996 32.0128 35.7164 32.3798 35.4258 32.7356C35.3699 32.8026 35.3141 32.8697 35.2582 32.9349L31.7186 32.0519C31.1262 32.6294 30.4928 33.1603 29.8222 33.6428L30.0774 37.2733C30.001 37.3199 29.9209 37.3664 29.8389 37.4111C29.4347 37.6403 29.0155 37.8601 28.5871 38.0612C28.5535 38.0799 28.52 38.0966 28.4827 38.1134C28.4455 38.1302 28.4138 38.1451 28.3766 38.16C27.9537 38.3593 27.5289 38.54 27.1005 38.702C27.0185 38.7318 26.9384 38.7616 26.8564 38.7896L24.2223 36.2767C23.4286 36.4835 22.6146 36.6325 21.7856 36.72L20.2095 39.9985C20.1201 40.0023 20.027 39.9985 19.9338 40.0004C19.4699 39.9985 18.9968 39.9818 18.5254 39.9445C18.4863 39.9445 18.4491 39.9408 18.4099 39.9371C18.3708 39.9352 18.3336 39.9315 18.2944 39.9259C17.8306 39.8905 17.3686 39.8346 16.9159 39.7638C16.8302 39.7508 16.7445 39.7359 16.6607 39.7191L15.6156 36.2283C14.8071 36.0122 14.0265 35.7384 13.2776 35.4105L10.2858 37.4801C10.2057 37.4372 10.1274 37.3906 10.0455 37.3459C9.6412 37.1131 9.23881 36.8653 8.84759 36.599C8.81406 36.5785 8.78239 36.558 8.75072 36.5356C8.71905 36.5133 8.68738 36.4928 8.65758 36.4686C8.27195 36.2078 7.89937 35.9321 7.53983 35.6471C7.4709 35.5912 7.40383 35.5372 7.33863 35.4813L8.15832 31.929C7.5715 31.3497 7.02939 30.7257 6.53758 30.0644L2.90675 30.381C2.85832 30.3047 2.80988 30.2264 2.76331 30.1445C2.52858 29.7421 2.3013 29.3286 2.09266 28.9039C2.07216 28.8703 2.05726 28.8368 2.03863 28.7996C2.02187 28.766 2.0051 28.7325 1.9902 28.6971C1.78528 28.278 1.59712 27.8533 1.42573 27.4286C1.39406 27.3466 1.36239 27.2665 1.33072 27.1845L3.79909 24.5059C3.5774 23.7161 3.41533 22.9039 3.31287 22.0768L0.00805257 20.5624C0.00246382 20.4711 0.00246382 20.3798 0.00246382 20.2867C-0.00498785 19.821 0.00432673 19.3497 0.0322705 18.8766C0.0322705 18.8375 0.0359963 18.8002 0.0378592 18.7611C0.0397222 18.722 0.0415851 18.6847 0.0471738 18.6456C0.0732547 18.1799 0.121691 17.7198 0.18503 17.2671C0.196207 17.1777 0.209248 17.0939 0.224151 17.0082L3.69477 15.9036C3.89782 15.0914 4.15863 14.3072 4.47347 13.5509L2.3516 10.5947C2.39259 10.5146 2.4373 10.4345 2.48201 10.3525C2.70742 9.94273 2.94774 9.53851 3.20668 9.14174C3.22531 9.10635 3.2458 9.07654 3.26816 9.04301C3.28865 9.00948 3.30914 8.97781 3.33336 8.94801C3.58858 8.55683 3.85684 8.18055 4.13628 7.81731C4.18844 7.74652 4.24246 7.67946 4.29649 7.6124L7.86397 8.37055C8.43216 7.77446 9.04879 7.22122 9.70081 6.71641L9.32078 3.09146C9.39529 3.04117 9.47353 2.9946 9.5555 2.94616C9.9523 2.70214 10.3621 2.4693 10.7832 2.25321C10.8167 2.23272 10.8502 2.21596 10.8856 2.19733C10.9192 2.18057 10.9527 2.1638 10.9881 2.14704C11.4035 1.93468 11.8227 1.73909 12.2456 1.56213C12.3257 1.5286 12.4076 1.49507 12.4877 1.4634L15.2076 3.88314C15.9937 3.64843 16.8041 3.47147 17.6294 3.35597L19.0899 0.0234781C19.1812 0.0178898 19.2725 0.016027 19.3656 0.0123015C19.7382 0.00112486 20.1127 -0.000737908 20.4927 0.0104387C20.5858 0.0104387 20.6808 0.016027 20.7759 0.0197526C20.7852 0.0197526 20.7945 0.0197526 20.8057 0.0197526C20.815 0.0197526 20.8243 0.0216153 20.8336 0.0197526C20.8392 0.0197526 20.8429 0.0197526 20.8485 0.0197526C20.8969 0.0197526 20.9472 0.0234781 20.9957 0.0272036H21.005C21.0534 0.0309292 21.1 0.0309292 21.1484 0.0346547C21.2341 0.040243 21.3198 0.0439686 21.4037 0.0514197C21.4167 0.0514197 21.4279 0.0532824 21.4391 0.0532824L21.4744 0.057008C21.4968 0.057008 21.5173 0.0607335 21.5378 0.0607335C21.5564 0.0625963 21.575 0.064459 21.5937 0.064459C21.6812 0.0719101 21.7688 0.081224 21.8545 0.0886751C21.9607 0.0979889 22.0669 0.109166 22.173 0.122205C22.214 0.122205 22.2494 0.127793 22.2885 0.131519C22.3277 0.135244 22.3649 0.140833 22.4022 0.148284C22.4841 0.157598 22.5643 0.166911 22.6462 0.178088C23.0263 0.224657 23.4026 0.284266 23.7752 0.356914C23.8608 0.373679 23.9447 0.392307 24.0304 0.410934L24.9507 3.93343C25.7498 4.17932 26.5211 4.48109 27.2588 4.83501L30.3214 2.87165C30.3978 2.91822 30.4779 2.96665 30.5562 3.01509C30.9511 3.26284 31.3442 3.52362 31.7261 3.80304C31.7596 3.82353 31.7913 3.84588 31.8211 3.8701C31.8528 3.89245 31.8826 3.9148 31.9124 3.94088C32.2905 4.21657 32.652 4.50344 33.0003 4.80148C33.0674 4.85737 33.1326 4.91325 33.1941 4.971L32.2514 8.49349C32.8159 9.09703 33.3356 9.73596 33.8051 10.414L37.4434 10.224C37.4881 10.3022 37.5328 10.3842 37.5775 10.4662C37.7992 10.876 38.0116 11.297 38.2034 11.731C38.2221 11.7645 38.237 11.798 38.2537 11.8334C38.2705 11.8688 38.2854 11.9042 38.3003 11.9396C38.4903 12.3662 38.6617 12.7946 38.8182 13.2268C38.848 13.3106 38.876 13.3907 38.902 13.4727L36.3424 16.0619C36.5343 16.8592 36.6703 17.677 36.7429 18.5077L39.9937 20.1414C39.9937 20.2308 39.9918 20.3239 39.99 20.4171C39.9807 20.8828 39.9546 21.3541 39.9099 21.8253C39.908 21.8645 39.9043 21.9017 39.9006 21.9408L39.908 21.9427Z" fill="#C56328"/>
<path d="M20.9958 0.0269823C20.9474 0.0232568 20.8971 0.021394 20.8486 0.0195312C20.8635 0.0195312 20.8766 0.0195312 20.8915 0.0195312C20.9269 0.021394 20.9604 0.021394 20.9958 0.0251196V0.0269823Z" fill="#C56328"/>
<path d="M21.5382 0.0601855C21.5177 0.0601855 21.4972 0.0564599 21.4748 0.0564599L21.4395 0.0527344C21.473 0.0545971 21.5047 0.0564599 21.5382 0.0601855Z" fill="#C56328"/>
<path d="M22.6483 0.178082C22.5663 0.166905 22.4862 0.157592 22.4042 0.148278C22.3651 0.140827 22.3297 0.135238 22.2906 0.131513C22.2515 0.127787 22.2161 0.122199 22.1751 0.122199C22.0689 0.111022 21.9627 0.0998458 21.8565 0.0886691C21.769 0.0812181 21.6814 0.0719042 21.5957 0.0644531C21.864 0.0830808 22.1285 0.10916 22.3912 0.140827C22.4787 0.152003 22.5626 0.16318 22.6483 0.176219V0.178082Z" fill="#C56328"/>
<path d="M19.1538 0.0195312C19.1426 0.0195312 19.1333 0.0195312 19.124 0.0232568C19.029 0.0251196 18.934 0.0307079 18.8408 0.0362962C18.9302 0.0288451 19.0234 0.0251196 19.1165 0.021394C19.1296 0.021394 19.1408 0.021394 19.1538 0.021394V0.0195312Z" fill="#EE7834"/>
<path d="M40 20.2924C40 20.3315 40 20.3688 39.9963 20.4079C39.9888 20.8755 39.9646 21.3374 39.9236 21.7938C39.918 21.8813 39.9087 21.967 39.8975 22.0527L36.4828 23.3213C36.3207 24.1409 36.0972 24.9363 35.8178 25.7075L38.0775 28.5594C38.0421 28.6413 37.9992 28.7252 37.9601 28.8071C37.7533 29.2263 37.5335 29.6417 37.2932 30.0515C37.2746 30.0869 37.2559 30.1167 37.2354 30.152C37.2149 30.1856 37.1963 30.2154 37.174 30.2489C36.9374 30.6513 36.6877 31.0406 36.4251 31.4187C36.3748 31.4895 36.3263 31.5603 36.2742 31.6311L32.675 31.0443C32.131 31.6683 31.5461 32.2495 30.9164 32.786L31.4697 36.383C31.397 36.437 31.3207 36.4892 31.2424 36.5395C30.8587 36.8021 30.4581 37.0555 30.0483 37.2902C30.0166 37.3107 29.9831 37.3312 29.9496 37.3498C29.916 37.3684 29.8825 37.387 29.8471 37.4038C29.4428 37.6367 29.033 37.8527 28.6194 38.0502C28.5393 38.0874 28.463 38.1228 28.3828 38.1582L25.5493 35.8708C24.7744 36.1427 23.9752 36.3588 23.1574 36.5134L21.857 39.9111C21.7676 39.9204 21.6763 39.9279 21.5832 39.9353C21.1193 39.9707 20.648 39.9931 20.1748 39.9968C20.1357 39.9987 20.0985 40.0005 20.0593 39.9987C20.0202 39.9987 19.983 39.9987 19.9438 39.9987C19.4781 40.0005 19.0142 39.9838 18.556 39.9521C18.4684 39.9465 18.3827 39.939 18.297 39.9297L16.9669 36.5376C16.1435 36.3886 15.3443 36.18 14.5693 35.9155L11.7582 38.2253C11.6762 38.1899 11.5924 38.1489 11.5085 38.1117C11.0857 37.9123 10.6665 37.7 10.2529 37.4671C10.2175 37.4485 10.1859 37.4318 10.1505 37.4113C10.1169 37.3908 10.0853 37.374 10.0517 37.3517C9.64563 37.1225 9.25255 36.8804 8.87065 36.6252C8.798 36.5749 8.72721 36.5283 8.65642 36.4762L9.1799 32.868C8.54837 32.3389 7.95596 31.7615 7.41013 31.143L3.81842 31.7578C3.76253 31.6851 3.70851 31.6106 3.65635 31.5342C3.38809 31.1524 3.12914 30.7593 2.88696 30.3532C2.86461 30.3216 2.84598 30.288 2.82549 30.2545C2.80686 30.2228 2.78637 30.1893 2.7696 30.1558C2.53115 29.7553 2.3076 29.3473 2.10267 28.9394C2.06355 28.8593 2.0263 28.7829 1.98904 28.7047L4.22826 25.8323C3.94324 25.063 3.7141 24.2676 3.54457 23.4517L0.124257 22.2111C0.111216 22.1216 0.103764 22.0304 0.0963128 21.9354C0.0516028 21.4715 0.0217961 21.0021 0.00875571 20.5271C0.00689279 20.488 0.00502988 20.4507 0.00502988 20.4116C0.00502988 20.3725 0.00130404 20.3352 0.00502988 20.2961C-0.00614763 19.8304 0.00130404 19.3685 0.0273849 18.9102C0.0311107 18.8208 0.0366995 18.7351 0.0441511 18.6494L3.41231 17.2617C3.5483 16.4346 3.74204 15.6318 3.99354 14.8531L1.63508 12.0832C1.66861 12.0012 1.70774 11.9155 1.74499 11.8317C1.93501 11.4051 2.1418 10.9804 2.36721 10.565C2.38398 10.5278 2.40074 10.498 2.42123 10.4626C2.43986 10.4272 2.45663 10.3955 2.47898 10.362C2.70067 9.95217 2.93726 9.55353 3.18503 9.16794C3.2316 9.09343 3.27818 9.02264 3.32847 8.95L6.94626 9.41196C7.46415 8.76931 8.03234 8.1695 8.63965 7.61253L7.96155 4.03228C8.03234 3.9764 8.10686 3.92238 8.18324 3.86836C8.55955 3.59267 8.94703 3.32816 9.35129 3.07668C9.38296 3.05433 9.41463 3.03384 9.44816 3.01335C9.47983 2.99472 9.51336 2.97423 9.54689 2.9556C9.94369 2.70972 10.3442 2.48059 10.7522 2.26824C10.8304 2.22726 10.9068 2.18814 10.9851 2.15088L13.8949 4.33778C14.6587 4.03973 15.4505 3.79571 16.2646 3.6113L17.4438 0.167034C17.5332 0.153995 17.6245 0.144681 17.7176 0.133504C18.0884 0.0906606 18.461 0.0571307 18.841 0.038503C18.9341 0.0329147 19.0291 0.0273264 19.1242 0.0254636C19.1335 0.0254636 19.1428 0.0217381 19.154 0.0217381C19.1633 0.0217381 19.1726 0.0217381 19.1819 0.0217381C19.1875 0.0217381 19.1912 0.0217381 19.1968 0.0217381C19.2452 0.0198753 19.2955 0.0180126 19.344 0.0161498H19.3533C19.4017 0.014287 19.4483 0.0124242 19.4967 0.0124242C19.5824 0.0124242 19.6681 0.00869871 19.752 0.00683594C19.765 0.00683594 19.7762 0.00683594 19.7873 0.00683594H19.8227C19.8451 0.00683594 19.8656 0.00683594 19.8861 0.00683594C19.9047 0.00683594 19.9233 0.00683594 19.942 0.00683594C20.0295 0.00683594 20.1171 0.00683594 20.2046 0.00869871C20.3108 0.00869871 20.4189 0.0124242 20.5251 0.014287C20.566 0.0124242 20.6014 0.014287 20.6406 0.014287C20.6797 0.014287 20.7169 0.0161498 20.7561 0.0217381C20.838 0.0236009 20.92 0.0273264 21.002 0.031052C21.3857 0.0459541 21.7639 0.0757584 22.1421 0.116739C22.2296 0.126053 22.3153 0.13723 22.401 0.148406L23.6101 3.58335C24.426 3.76218 25.2196 3.99875 25.9853 4.29121L28.8765 2.08196C28.9566 2.12108 29.0405 2.16392 29.1224 2.2049C29.5379 2.41912 29.9496 2.64638 30.3538 2.89413C30.3892 2.91276 30.4209 2.93139 30.4544 2.95374C30.4879 2.97423 30.5178 2.99286 30.5513 3.01707C30.9499 3.2611 31.3356 3.51629 31.7063 3.78453C31.7771 3.83483 31.846 3.88512 31.9131 3.93914L31.2648 7.52684C31.8777 8.08008 32.4477 8.67617 32.9731 9.31324L36.5834 8.82333C36.6356 8.89784 36.684 8.97607 36.7362 9.05431C36.9914 9.44363 37.2373 9.84785 37.4646 10.2614C37.4851 10.2931 37.5037 10.3266 37.5223 10.3601C37.5409 10.3936 37.5596 10.429 37.5763 10.4626C37.7999 10.8724 38.0067 11.284 38.1986 11.7032C38.2358 11.7851 38.2693 11.8615 38.3029 11.9416L35.9668 14.7339C36.2239 15.5125 36.4269 16.3154 36.5685 17.1387L39.9422 18.4986C39.9516 18.588 39.9553 18.6792 39.9609 18.7724C39.9888 19.2381 40.0019 19.7094 39.9963 20.1825C39.9963 20.2216 39.9963 20.2589 39.9963 20.298L40 20.2924Z" fill="#EE7834"/>
<path d="M19.3444 0.0146484C19.296 0.0146484 19.2457 0.0165112 19.1973 0.0202367C19.2122 0.0202367 19.2252 0.0202367 19.2401 0.018374C19.2755 0.018374 19.309 0.0146484 19.3444 0.0165112V0.0146484Z" fill="#EE7834"/>
<path d="M19.8888 0.0013971C19.8683 0.0013971 19.8478 0.0013971 19.8254 0.0013971H19.79C19.8236 -0.000465701 19.8552 -0.000465701 19.8888 0.0013971Z" fill="#EE7834"/>
<path d="M21.0024 0.0275968C20.9204 0.0238712 20.8384 0.0201457 20.7565 0.0182829C20.7174 0.0126946 20.682 0.0126946 20.641 0.0108318C20.6 0.00896908 20.5665 0.00896908 20.5255 0.0108318C20.4193 0.00710631 20.3112 0.00524353 20.2051 0.00524353C20.1175 0.00524353 20.0299 0.00524353 19.9424 0.00338076C20.2106 -0.000344775 20.477 0.00338076 20.7416 0.0126946C20.8291 0.0164202 20.9148 0.0201457 21.0005 0.025734L21.0024 0.0275968Z" fill="#EE7834"/>
<path d="M19.9999 34.2388C27.8645 34.2388 34.24 27.8638 34.24 19.9998C34.24 12.1358 27.8645 5.76074 19.9999 5.76074C12.1353 5.76074 5.75977 12.1358 5.75977 19.9998C5.75977 27.8638 12.1353 34.2388 19.9999 34.2388Z" fill="#FEDE7F"/>
<path d="M31.7366 21.399C31.6956 20.8793 31.6994 20.3558 31.6137 19.8399C31.5373 19.3872 31.3342 19.0016 30.9449 18.7334C30.699 18.5639 30.4195 18.4763 30.1252 18.4335C29.4974 18.3422 28.8696 18.2509 28.2399 18.1596C27.994 18.1242 27.7481 18.1131 27.5022 18.1354C27.4128 18.1447 27.3867 18.1187 27.383 18.0292C27.3718 17.761 27.3513 17.4928 27.3308 17.2264C27.3252 17.1593 27.3383 17.1351 27.4091 17.1277C28.4542 17.0159 29.4974 16.9041 30.5425 16.7905C30.5499 16.7905 30.5574 16.7905 30.5648 16.7886C30.671 16.7737 30.8201 16.8129 30.8704 16.7346C30.9169 16.662 30.8685 16.5278 30.8611 16.4198C30.8368 16.0174 30.8108 15.617 30.7847 15.2146C30.7642 14.8905 30.7418 14.5664 30.7269 14.2441C30.7232 14.1659 30.6729 14.164 30.6226 14.1565C30.3264 14.1118 30.0321 14.0727 29.7358 14.0299C29.4434 13.987 29.1528 13.9423 28.8603 13.8976C28.7206 13.8753 28.5846 13.9125 28.4486 13.9256C27.4053 14.0355 26.3621 14.1472 25.3189 14.2627C24.8774 14.3112 24.4377 14.3801 24.0092 14.4993C23.8565 14.5421 23.6963 14.5682 23.5584 14.6465C23.3479 14.7657 23.1337 14.7508 22.9101 14.7079C22.6828 14.6651 22.4537 14.6278 22.2227 14.6073C22.0215 14.5906 21.8222 14.639 21.621 14.6595C20.7994 14.7452 19.9797 14.8346 19.1582 14.924C18.9477 14.9482 18.998 14.9091 18.9645 15.1177C18.9496 15.2053 18.9198 15.2202 18.8434 15.209C18.6217 15.1755 18.3963 15.1587 18.1783 15.1103C17.897 15.0488 17.6213 15.0879 17.3437 15.1177C16.5203 15.2053 15.695 15.291 14.8716 15.386C14.0072 15.4828 13.1391 15.5667 12.2747 15.6635C11.4774 15.7529 10.6763 15.8312 9.88088 15.9318C9.3723 15.997 8.88794 16.1478 8.47251 16.4682C8.13905 16.7253 7.94158 17.0681 7.83539 17.4685C7.79255 17.6232 7.76274 17.7834 7.72734 17.9398C7.71989 18.1727 7.71244 18.4037 7.70312 18.6346C7.7497 18.7147 7.72921 18.806 7.73479 18.8917C7.78882 19.6871 7.83726 20.4844 7.88755 21.2816C7.9453 22.1869 7.99933 23.0904 8.06639 23.9938C8.10552 24.5303 8.21729 25.05 8.52281 25.5083C8.83392 25.9721 9.27543 26.2385 9.8194 26.326C10.5012 26.4359 11.1849 26.5272 11.8686 26.6259C11.8835 26.6278 11.8984 26.6297 11.8966 26.6501C12.0754 26.6557 12.2561 26.6632 12.4349 26.6688C12.5709 26.6222 12.7144 26.6315 12.8541 26.6147C13.5639 26.5291 14.2792 26.4788 14.9853 26.3707C15.3206 26.3204 15.6447 26.2161 15.9316 26.0317C16.0583 25.9497 16.1775 26.0075 16.2986 26.0224C16.5837 26.0559 16.8668 26.1193 17.1518 26.1416C17.3195 26.1565 17.4928 26.1193 17.6623 26.1006C18.1653 26.0466 18.6683 25.9889 19.1731 25.9348C19.609 25.8864 20.0468 25.8417 20.4846 25.7989C20.5722 25.7895 20.5722 25.7281 20.5703 25.6703C20.5703 25.5641 20.6187 25.5511 20.71 25.5679C20.9447 25.6089 21.1813 25.648 21.4179 25.6741C21.6545 25.7001 21.8855 25.6424 22.1184 25.62C22.6791 25.5641 23.238 25.5027 23.7969 25.4412C24.3408 25.3816 24.8848 25.3238 25.4306 25.2642C26.038 25.199 26.6453 25.1338 27.2544 25.0668C27.8729 24.9997 28.4914 24.9308 29.1118 24.8656C29.5123 24.8228 29.9128 24.7967 30.3059 24.6998C30.7008 24.603 31.0697 24.4539 31.3715 24.1689C31.7217 23.8374 31.8596 23.4182 31.8372 22.947C31.813 22.4328 31.7813 21.9187 31.7403 21.4064L31.7366 21.399ZM16.6209 24.8209C16.4029 25.4095 15.9745 25.7746 15.3914 25.9758C15.0561 26.0913 14.7058 26.1267 14.3575 26.164C13.7222 26.231 13.0888 26.3093 12.4517 26.3577C11.9096 26.4005 11.3898 26.3093 10.9595 25.9404C10.5888 25.6238 10.4193 25.1972 10.3261 24.7352C10.3093 24.6551 10.2963 24.575 10.287 24.4931C10.2833 24.467 10.2795 24.439 10.2758 24.413C10.274 24.3943 10.2721 24.3738 10.2702 24.3552C10.2684 24.3291 10.2646 24.3049 10.2628 24.2788C10.2609 24.2583 10.259 24.2379 10.2572 24.2174C10.2535 24.1745 10.2516 24.1335 10.2479 24.0907C10.2404 23.9994 10.2367 23.91 10.2311 23.8187C10.2237 23.6921 10.2181 23.5673 10.2087 23.4406V23.4331C10.151 22.58 10.0914 21.7268 10.0411 20.8737C10.0392 20.8364 10.0355 20.7973 10.0336 20.7601C10.028 20.6706 10.0225 20.5831 10.0169 20.4937C9.98892 20.0671 9.95539 19.6443 9.9349 19.2251C9.93117 19.1525 9.92745 19.0817 9.92372 19.0091C9.91813 18.8787 9.91441 18.7483 9.91068 18.6179C9.9349 18.1988 9.97775 17.8113 10.1622 17.4536C10.3727 17.0457 10.7266 16.8184 11.1421 16.6657C11.5705 16.5074 12.0214 16.4627 12.4703 16.4161C13.5508 16.3006 14.6313 16.1832 15.7118 16.0677C15.8236 16.0547 15.9354 16.0454 16.0471 16.0305C16.0751 16.0268 16.0993 16.0268 16.1179 16.0305C16.1235 16.0305 16.1291 16.0342 16.1328 16.0361C16.1328 16.0361 16.1328 16.0361 16.1347 16.0361C16.1384 16.0379 16.1421 16.0417 16.1459 16.0454C16.1477 16.0473 16.1515 16.051 16.1533 16.0547C16.1608 16.0659 16.1664 16.0789 16.1682 16.0957C16.1682 16.0994 16.1682 16.1031 16.1701 16.1069C16.1701 16.1125 16.1701 16.118 16.1701 16.1236C16.1701 16.1255 16.1701 16.1274 16.1701 16.1292V16.1385C16.198 16.6247 16.2334 17.1109 16.2651 17.5989C16.2688 17.666 16.2707 17.7331 16.2744 17.7983C16.2744 17.8169 16.2763 17.8336 16.2781 17.8541C16.2781 17.8746 16.2819 17.8951 16.2837 17.9175C16.293 18.0069 16.267 18.0441 16.1738 18.0535C15.6056 18.1112 15.0374 18.1745 14.4692 18.236C13.9495 18.2919 13.4279 18.3496 12.9081 18.4037C12.7796 18.4167 12.6492 18.4297 12.5206 18.4446C12.4256 18.454 12.394 18.4875 12.3958 18.575C12.4759 19.743 12.5523 20.9091 12.6287 22.077C12.6753 22.7737 12.72 23.4704 12.7609 24.1671C12.7665 24.2695 12.7926 24.3012 12.9007 24.2881C13.3496 24.236 13.7986 24.1913 14.2494 24.1447C14.3258 24.1373 14.3686 24.1168 14.3631 24.0236C14.3258 23.5021 14.2941 22.9805 14.2587 22.4589C14.2569 22.4328 14.2494 22.4068 14.2513 22.3807C14.2569 22.295 14.2122 22.2838 14.1395 22.2931C13.9346 22.3173 13.7315 22.336 13.5266 22.362C13.4633 22.3695 13.4279 22.3565 13.4148 22.3099C13.4148 22.3062 13.413 22.3024 13.4111 22.2968C13.4111 22.2913 13.4092 22.2857 13.4092 22.2801C13.4092 22.2745 13.4092 22.2689 13.4092 22.2633C13.3794 21.7548 13.3459 21.2462 13.3105 20.7377C13.3105 20.7321 13.3105 20.7284 13.3105 20.7228C13.3068 20.68 13.3142 20.652 13.3329 20.6334C13.3496 20.6166 13.3776 20.6073 13.4148 20.6036C14.4078 20.4993 15.3988 20.3912 16.3899 20.2851C16.5706 20.2664 16.5706 20.2664 16.5818 20.4434C16.6489 21.4642 16.7159 22.485 16.7811 23.5039C16.8091 23.9547 16.7811 24.3999 16.6228 24.8284L16.6209 24.8209ZM16.2521 19.851C16.2241 19.8827 16.1813 19.8603 16.1459 19.8548C15.7286 19.7933 15.3131 19.7113 14.894 19.6759C14.663 19.6554 14.4264 19.715 14.1935 19.7393C13.752 19.7858 13.3105 19.8324 12.869 19.8846C12.7721 19.8957 12.7405 19.8715 12.7367 19.7709C12.7237 19.4543 12.6995 19.1376 12.679 18.8116C12.6417 18.7147 12.7162 18.7073 12.7908 18.6998C13.3385 18.6421 13.888 18.5825 14.4357 18.5247C14.8362 18.4819 15.2368 18.4428 15.6373 18.3943C15.7137 18.385 15.7435 18.4037 15.7677 18.4707C15.9223 18.901 16.0807 19.3276 16.2371 19.7579C16.2483 19.7877 16.2781 19.8231 16.2539 19.851H16.2521ZM25.9392 20.9966C26.2261 21.0376 26.513 21.0413 26.7999 21.0246C26.8725 21.0208 26.8819 21.0413 26.8856 21.1065C26.9005 21.3711 26.9191 21.6337 26.9415 21.8982C26.9471 21.9709 26.921 21.9895 26.8595 21.9951C26.2131 22.0621 25.5685 22.1329 24.9221 22.2018C24.5849 22.2372 24.2458 22.2689 23.9086 22.3117C23.8136 22.3248 23.7727 22.3117 23.7354 22.213C23.5081 21.5834 23.2734 20.9575 23.0387 20.3316C23.0312 20.3111 23.0182 20.2925 23.0293 20.2497C23.346 20.5812 23.7577 20.6781 24.1862 20.7377C24.7712 20.8197 25.3543 20.9091 25.9374 20.9948L25.9392 20.9966ZM24.3967 25.0854C23.6199 25.1655 22.8431 25.2512 22.0681 25.335C21.9638 25.3462 21.8594 25.3574 21.7551 25.3686C21.6657 25.376 21.6657 25.3034 21.6489 25.2493C21.526 24.847 21.4049 24.4428 21.2838 24.0385C21.2074 23.7815 21.1273 23.5244 21.0547 23.2655C21.0304 23.1779 20.9857 23.1556 20.9 23.1668C20.6988 23.1928 20.7007 23.191 20.6709 23.3866C20.5666 24.0609 20.4585 24.7371 20.3523 25.4114C20.3393 25.4971 20.2964 25.5269 20.2126 25.5362C19.3687 25.6256 18.5267 25.7169 17.6828 25.8063C17.5077 25.8249 17.5077 25.8249 17.5449 25.6573C17.9045 24.0367 18.2621 22.4142 18.6217 20.7936C18.6459 20.6818 18.644 20.5775 18.6049 20.4657C18.0758 19.0184 17.5505 17.5691 17.0233 16.1199C16.9544 15.9299 16.9544 15.928 17.1481 15.9075C17.9324 15.8237 18.7167 15.7436 19.4991 15.6542C19.6109 15.6412 19.6239 15.7064 19.6444 15.779C19.8344 16.4161 20.0226 17.0531 20.2108 17.6902C20.2629 17.8653 20.3188 18.0404 20.3654 18.2155C20.3859 18.29 20.4231 18.3068 20.4958 18.3012C20.6951 18.2844 20.6988 18.2863 20.7305 18.0851C20.8609 17.2711 20.9876 16.4552 21.1143 15.6412C21.1385 15.4828 21.1403 15.481 21.2987 15.4642C22.0737 15.3804 22.8505 15.2984 23.6273 15.2127C23.7671 15.1978 23.7764 15.2071 23.7447 15.3469C23.4019 16.9265 23.061 18.5042 22.7182 20.0839C22.6996 20.1696 22.7201 20.2459 22.748 20.3242C23.1896 21.5108 23.6311 22.6955 24.0726 23.8821C24.2048 24.2379 24.3371 24.5955 24.4712 24.9513C24.5048 25.0388 24.4917 25.0742 24.3893 25.0854H24.3967ZM30.6822 24.2807C30.3134 24.4353 29.9203 24.4912 29.5253 24.5322C28.5492 24.6365 27.5711 24.7408 26.595 24.847C26.1125 24.8991 25.63 24.9513 25.1475 25.0053C25.0804 25.0128 25.0525 24.9904 25.0487 24.9234C25.0115 24.3124 24.9724 23.7014 24.9295 23.0904C24.9239 23.0084 24.9463 22.9749 25.0357 22.9656C26.3621 22.8259 27.6885 22.6824 29.013 22.5427C29.1229 22.5316 29.1565 22.4943 29.149 22.3825C29.1062 21.7976 29.0671 21.2146 29.0335 20.6278C29.0279 20.5272 28.9851 20.5123 28.8994 20.5216C28.4057 20.5775 27.9121 20.6315 27.4184 20.6837C26.9508 20.734 26.4832 20.7843 26.01 20.7172C25.2686 20.6148 24.8382 20.177 24.7842 19.43C24.7134 18.4782 24.6445 17.5244 24.6016 16.5707C24.5756 16.0025 24.8103 15.5555 25.3412 15.2947C25.8032 15.0693 26.3006 14.9631 26.8036 14.8886C27.6084 14.7694 28.4206 14.7061 29.231 14.6129C29.6017 14.5701 29.9743 14.5365 30.345 14.4918C30.4549 14.4788 30.4866 14.5142 30.4922 14.6204C30.5257 15.2053 30.563 15.7902 30.6058 16.3751C30.6133 16.4831 30.5686 16.5055 30.4754 16.5167C29.3763 16.634 28.2772 16.7532 27.1781 16.8687C27.0793 16.8799 27.0551 16.9134 27.0607 17.0084C27.1035 17.6194 27.1427 18.2304 27.1799 18.8414C27.1855 18.9308 27.2246 18.9345 27.2954 18.9271C27.8189 18.8694 28.3424 18.8135 28.8659 18.7594C29.2738 18.7166 29.6818 18.6589 30.0935 18.7203C30.8517 18.8321 31.3137 19.2941 31.3808 20.0597C31.4386 20.7172 31.4721 21.3766 31.5168 22.0361C31.5392 22.3825 31.5596 22.729 31.5783 23.0047C31.5559 23.6846 31.2169 24.0572 30.6803 24.2844L30.6822 24.2807Z" fill="#F49C2D"/>
<path d="M21.7532 25.367C21.6638 25.3744 21.6638 25.3018 21.647 25.2478C21.524 24.8454 21.403 24.4412 21.2819 24.037C21.2055 23.7799 21.1254 23.5228 21.0527 23.2639C21.0285 23.1782 20.9838 23.154 20.8981 23.1652C20.6969 23.1913 20.6988 23.1894 20.669 23.385C20.5646 24.0593 20.4547 24.7336 20.3504 25.4098C20.3374 25.4955 20.2945 25.5253 20.2107 25.5346C19.3668 25.6241 18.5248 25.7153 17.6808 25.8047C17.5057 25.8234 17.5057 25.8215 17.543 25.6557C17.9025 24.0351 18.2602 22.4126 18.6216 20.792C18.6458 20.6803 18.644 20.5759 18.603 20.4642C18.0739 19.0168 17.5486 17.5676 17.0214 16.1183C16.9524 15.9283 16.9524 15.9265 17.1462 15.906C17.9305 15.8222 18.7148 15.7421 19.4972 15.6526C19.609 15.6396 19.622 15.7067 19.6425 15.7774C19.8325 16.4145 20.0207 17.0516 20.2088 17.6886C20.261 17.8638 20.3169 18.0389 20.3634 18.214C20.3839 18.2885 20.4212 18.3052 20.492 18.2996C20.6913 18.2829 20.695 18.2847 20.7267 18.0817C20.8553 17.2677 20.9838 16.4518 21.1105 15.6377C21.1347 15.4794 21.1366 15.4775 21.2949 15.4608C22.0717 15.377 22.8467 15.295 23.6236 15.2093C23.7633 15.1944 23.7726 15.2037 23.7409 15.3434C23.3981 16.9231 23.0572 18.5008 22.7145 20.0804C22.6958 20.1661 22.7145 20.2425 22.7443 20.3207C23.1858 21.5073 23.6273 22.6921 24.0688 23.8786C24.2011 24.2363 24.3333 24.5921 24.4675 24.9479C24.501 25.0354 24.4879 25.0708 24.3855 25.082C23.6087 25.1621 22.8337 25.2478 22.0568 25.3316C21.9525 25.3428 21.8482 25.354 21.7457 25.3651L21.7532 25.367Z" fill="#F49C2D"/>
<path d="M16.6205 24.8205C16.4025 25.4092 15.974 25.7743 15.3909 25.9755C15.0556 26.091 14.7054 26.1264 14.357 26.1636C13.7218 26.2307 13.0884 26.3089 12.4513 26.3573C11.9092 26.4002 11.3894 26.3089 10.9591 25.9401C10.5883 25.6234 10.4188 25.1968 10.3257 24.7349C10.3089 24.6548 10.2959 24.5747 10.2866 24.4927C10.2828 24.4666 10.2791 24.4387 10.2754 24.4126C10.2735 24.394 10.2717 24.3735 10.2698 24.3549C10.2679 24.3288 10.2642 24.3046 10.2623 24.2785C10.2605 24.258 10.2586 24.2375 10.2567 24.217C10.253 24.1742 10.2512 24.1332 10.2474 24.0903C10.2418 23.9991 10.2363 23.9097 10.2307 23.8184C10.2232 23.6917 10.2176 23.5669 10.2083 23.4402V23.4328C10.1487 22.6504 10.0947 21.8662 10.0537 21.082C10.05 21.013 10.0462 20.9423 10.0425 20.8733C10.0407 20.8361 10.0369 20.797 10.0351 20.7597C10.0295 20.6703 10.0239 20.5827 10.0183 20.4933C9.99035 20.0668 9.95682 19.6439 9.93633 19.2248C9.9326 19.1521 9.92888 19.0814 9.92515 19.0087C9.91956 18.8783 9.91584 18.7479 9.91211 18.6175C9.93633 18.1984 9.97917 17.8109 10.1636 17.4533C10.3741 17.0453 10.7281 16.8181 11.1435 16.6653C11.572 16.507 12.0228 16.4623 12.4718 16.4157C13.5522 16.3002 14.6327 16.1829 15.7132 16.0674C15.825 16.0544 15.9368 16.045 16.0486 16.0301C16.0765 16.0264 16.1007 16.0264 16.1193 16.0301C16.1249 16.0301 16.1305 16.0339 16.1343 16.0357C16.1343 16.0357 16.1343 16.0357 16.1361 16.0357C16.1398 16.0376 16.1436 16.0413 16.1473 16.045C16.1492 16.0469 16.1529 16.0506 16.1547 16.0544C16.1622 16.0655 16.1678 16.0786 16.1696 16.0953C16.1696 16.0991 16.1696 16.1028 16.1715 16.1065C16.1715 16.1121 16.1715 16.1177 16.1715 16.1233C16.1715 16.1289 16.1715 16.1345 16.1715 16.14C16.1715 16.1549 16.1715 16.1736 16.1715 16.1941C16.1454 16.6039 16.1678 17.0155 16.246 17.416C16.2572 17.4775 16.2647 17.539 16.2684 17.5986C16.2721 17.6656 16.274 17.7327 16.2777 17.7979C16.2777 17.8165 16.2796 17.8333 16.2814 17.8538C16.2814 17.8743 16.2851 17.8948 16.287 17.9171C16.2963 18.0065 16.2702 18.0438 16.1771 18.0531C15.6089 18.1109 15.0407 18.1742 14.4725 18.2357C13.9528 18.2915 13.4312 18.3493 12.9114 18.4033C12.7382 18.4219 12.5649 18.4387 12.3917 18.4573C12.3935 18.4964 12.3972 18.5356 12.3991 18.5747C12.4792 19.7426 12.5556 20.9087 12.632 22.0767C12.6785 22.7734 12.7233 23.47 12.7642 24.1667C12.7698 24.2692 12.7959 24.3008 12.904 24.2878C13.3529 24.2356 13.8019 24.1909 14.2527 24.1444C14.3291 24.1369 14.3719 24.1164 14.3663 24.0233C14.3291 23.5017 14.2974 22.9801 14.262 22.4586C14.2602 22.4325 14.2527 22.4064 14.2546 22.3803C14.2602 22.2946 14.2154 22.2835 14.1428 22.2928C13.9379 22.317 13.7348 22.3356 13.5299 22.3617C13.4666 22.3691 13.4312 22.3561 13.4181 22.3095C13.4181 22.3058 13.4163 22.3021 13.4144 22.2965C13.4144 22.2909 13.4144 22.2872 13.4125 22.2797C13.4088 22.2462 13.4107 22.1978 13.4163 22.1363C13.461 21.6967 13.4293 21.2515 13.3287 20.8212C13.3212 20.7895 13.3157 20.7616 13.3119 20.7374C13.3119 20.7318 13.3119 20.728 13.3119 20.7225C13.3082 20.6796 13.3157 20.6498 13.3343 20.633C13.3511 20.6163 13.379 20.607 13.4163 20.6032C14.4092 20.4989 15.4003 20.3909 16.3913 20.2847C16.572 20.2661 16.572 20.2661 16.5832 20.443C16.6503 21.4638 16.7173 22.4846 16.7825 23.5036C16.8105 23.9544 16.7825 24.3996 16.6242 24.828L16.6205 24.8205Z" fill="#F49C2D"/>
<path d="M31.5782 23.0008C31.5558 23.6807 31.2168 24.0551 30.6803 24.2805C30.3114 24.4351 29.9183 24.491 29.5234 24.532C28.5472 24.6363 27.5692 24.7406 26.593 24.8468C26.1105 24.899 25.628 24.9511 25.1455 25.0051C25.0785 25.0126 25.0505 24.9902 25.0468 24.9232C25.0095 24.3122 24.9704 23.7012 24.9276 23.0902C24.922 23.0082 24.9443 22.9728 25.0338 22.9635C26.3602 22.8238 27.6866 22.6804 29.013 22.5407C29.1229 22.5295 29.1564 22.4923 29.1489 22.3805C29.1061 21.7956 29.067 21.2107 29.0334 20.6258C29.0279 20.5252 28.985 20.5103 28.8993 20.5196C28.4056 20.5755 27.912 20.6276 27.4183 20.6816C26.9507 20.7319 26.4831 20.7804 26.0099 20.7152C25.2685 20.6109 24.8382 20.175 24.7841 19.428C24.7133 18.4761 24.6444 17.5224 24.6016 16.5686C24.5755 16.0005 24.8102 15.5534 25.3411 15.2926C25.8031 15.0672 26.3005 14.9611 26.8035 14.8866C27.6083 14.7673 28.4224 14.704 29.2309 14.6109C29.6016 14.568 29.9742 14.5326 30.3449 14.4879C30.4548 14.4749 30.4865 14.5103 30.4921 14.6183C30.5256 15.2032 30.5629 15.7881 30.6057 16.3731C30.6132 16.483 30.5685 16.5053 30.4753 16.5146C29.3762 16.6301 28.2771 16.7512 27.178 16.8667C27.0792 16.8779 27.055 16.9114 27.0625 17.0064C27.1053 17.6174 27.1444 18.2284 27.1798 18.8394C27.1854 18.9269 27.2264 18.9325 27.2953 18.925C27.8188 18.8673 28.3423 18.8114 28.8658 18.7574C29.2738 18.7146 29.6799 18.6568 30.0934 18.7183C30.8516 18.83 31.3137 19.292 31.3807 20.0576C31.4385 20.7152 31.472 21.3765 31.5167 22.034C31.5391 22.3805 31.5614 22.727 31.5782 23.0027V23.0008Z" fill="#F49C2D"/>
<path d="M32.1985 20.8511C32.1576 20.3314 32.1613 19.808 32.0756 19.292C31.9992 18.8393 31.7961 18.4538 31.4068 18.1855C31.1609 18.016 30.8815 17.9285 30.5871 17.8856C29.9593 17.7943 29.3315 17.7031 28.7018 17.6118C28.4559 17.5764 28.21 17.5652 27.9641 17.5876C27.8747 17.5969 27.8486 17.5708 27.8449 17.4814C27.8337 17.2131 27.8132 16.9449 27.7927 16.6785C27.7871 16.6115 27.8002 16.5873 27.871 16.5798C28.9161 16.468 29.9593 16.3563 31.0044 16.2426C31.0119 16.2426 31.0193 16.2426 31.0268 16.2408C31.1329 16.2259 31.282 16.265 31.3323 16.1868C31.3789 16.1141 31.3304 15.98 31.323 15.872C31.2987 15.4696 31.2727 15.0691 31.2466 14.6667C31.2261 14.3426 31.2037 14.0185 31.1888 13.6962C31.1851 13.618 31.1348 13.6161 31.0845 13.6087C30.7883 13.564 30.494 13.5249 30.1978 13.482C29.9053 13.4392 29.6147 13.3945 29.3222 13.3498C29.1825 13.3274 29.0465 13.3647 28.9105 13.3777C27.8673 13.4876 26.824 13.5994 25.7808 13.7149C25.3393 13.7633 24.8996 13.8322 24.4712 13.9514C24.3184 13.9943 24.1582 14.0204 24.0203 14.0986C23.8098 14.2178 23.5956 14.2029 23.372 14.1601C23.1448 14.1172 22.9156 14.08 22.6846 14.0595C22.4834 14.0427 22.2841 14.0911 22.0829 14.1116C21.2613 14.1973 20.4417 14.2867 19.6201 14.3762C19.4096 14.4004 19.4599 14.3612 19.4264 14.5699C19.4115 14.6574 19.3817 14.6723 19.3053 14.6612C19.0836 14.6276 18.8582 14.6109 18.6402 14.5624C18.3589 14.501 18.0832 14.5401 17.8056 14.5699C16.9822 14.6574 16.157 14.7431 15.3335 14.8381C14.4692 14.935 13.601 15.0188 12.7366 15.1157C11.9393 15.2051 11.1383 15.2833 10.3428 15.3839C9.83421 15.4491 9.34985 15.6 8.93442 15.9204C8.60096 16.1774 8.40349 16.5202 8.29731 16.9207C8.25446 17.0753 8.22465 17.2355 8.18926 17.392C8.1818 17.6248 8.17435 17.8558 8.16504 18.0868C8.21161 18.1669 8.19112 18.2582 8.19671 18.3439C8.25073 19.1393 8.29917 19.9365 8.34947 20.7338C8.40722 21.6391 8.46124 22.5425 8.52831 23.446C8.56743 23.9825 8.6792 24.5022 8.98472 24.9604C9.29583 25.4242 9.73734 25.6906 10.2813 25.7782C10.9631 25.8881 11.6468 25.9793 12.3305 26.0781C12.3454 26.0799 12.3603 26.0818 12.3585 26.1023C12.5373 26.1079 12.718 26.1153 12.8968 26.1209C13.0328 26.0743 13.1763 26.0837 13.316 26.0669C14.0258 25.9812 14.7411 25.9309 15.4472 25.8229C15.7825 25.7726 16.1067 25.6683 16.3935 25.4838C16.5202 25.4019 16.6395 25.4596 16.7605 25.4745C17.0456 25.5081 17.3287 25.5714 17.6138 25.5938C17.7814 25.6087 17.9547 25.5714 18.1242 25.5528C18.6272 25.4988 19.1302 25.441 19.635 25.387C20.0709 25.3386 20.5087 25.2938 20.9465 25.251C21.0341 25.2417 21.0341 25.1802 21.0322 25.1225C21.0322 25.0163 21.0806 25.0033 21.1719 25.02C21.4067 25.061 21.6432 25.1001 21.8798 25.1262C22.1164 25.1523 22.3474 25.0945 22.5803 25.0722C23.141 25.0163 23.6999 24.9548 24.2588 24.8934C24.8028 24.8337 25.3467 24.776 25.8926 24.7164C26.4999 24.6512 27.1072 24.586 27.7164 24.5189C28.3348 24.4519 28.9533 24.383 29.5737 24.3178C29.9742 24.2749 30.3747 24.2488 30.7678 24.152C31.1628 24.0551 31.5316 23.9061 31.8334 23.6211C32.1836 23.2895 32.3215 22.8704 32.2991 22.3991C32.2749 21.885 32.2432 21.3709 32.2023 20.8586L32.1985 20.8511ZM17.0828 24.273C16.8649 24.8617 16.4364 25.2268 15.8533 25.428C15.518 25.5435 15.1677 25.5788 14.8194 25.6161C14.1841 25.6832 13.5507 25.7614 12.9136 25.8098C12.3715 25.8527 11.8518 25.7614 11.4214 25.3926C11.0507 25.0759 10.8812 24.6493 10.788 24.1874C10.7713 24.1073 10.7582 24.0272 10.7489 23.9452C10.7452 23.9191 10.7415 23.8912 10.7377 23.8651C10.7359 23.8465 10.734 23.826 10.7321 23.8074C10.7303 23.7813 10.7266 23.7571 10.7247 23.731C10.7228 23.7105 10.721 23.69 10.7191 23.6695C10.7154 23.6267 10.7135 23.5857 10.7098 23.5428C10.7023 23.4516 10.6986 23.3622 10.693 23.2709C10.6856 23.1442 10.68 23.0194 10.6707 22.8927V22.8853C10.6129 22.0321 10.5533 21.179 10.503 20.3258C10.5011 20.2886 10.4974 20.2495 10.4955 20.2122C10.49 20.1228 10.4844 20.0352 10.4788 19.9458C10.4508 19.5193 10.4173 19.0964 10.3968 18.6773C10.3931 18.6046 10.3894 18.5339 10.3856 18.4612C10.38 18.3308 10.3763 18.2004 10.3726 18.07C10.3968 17.6509 10.4397 17.2634 10.6241 16.9058C10.8346 16.4978 11.1886 16.2706 11.604 16.1178C12.0325 15.9595 12.4833 15.9148 12.9322 15.8682C14.0127 15.7527 15.0932 15.6354 16.1737 15.5199C16.2855 15.5069 16.3973 15.4975 16.509 15.4826C16.537 15.4789 16.5612 15.4789 16.5798 15.4826C16.5854 15.4826 16.591 15.4864 16.5947 15.4882C16.5947 15.4882 16.5947 15.4882 16.5966 15.4882C16.6003 15.4901 16.6041 15.4938 16.6078 15.4975C16.6096 15.4994 16.6134 15.5031 16.6152 15.5069C16.6227 15.518 16.6283 15.5311 16.6301 15.5478C16.6301 15.5516 16.6301 15.5553 16.632 15.559C16.632 15.5646 16.632 15.5702 16.632 15.5758C16.632 15.5776 16.632 15.5795 16.632 15.5814V15.5907C16.6599 16.0769 16.6953 16.563 16.727 17.0511C16.7307 17.1181 16.7326 17.1852 16.7363 17.2504C16.7363 17.269 16.7382 17.2858 16.74 17.3063C16.74 17.3268 16.7438 17.3473 16.7456 17.3696C16.755 17.459 16.7289 17.4963 16.6357 17.5056C16.0675 17.5634 15.4993 17.6267 14.9312 17.6882C14.4114 17.744 13.8898 17.8018 13.37 17.8558C13.2415 17.8688 13.1111 17.8819 12.9825 17.8968C12.8875 17.9061 12.8559 17.9396 12.8577 18.0272C12.9378 19.1951 13.0142 20.3612 13.0906 21.5292C13.1372 22.2259 13.1819 22.9225 13.2229 23.6192C13.2284 23.7217 13.2545 23.7533 13.3626 23.7403C13.8115 23.6881 14.2605 23.6434 14.7113 23.5969C14.7877 23.5894 14.8306 23.5689 14.825 23.4758C14.7877 22.9542 14.756 22.4326 14.7206 21.9111C14.7188 21.885 14.7113 21.8589 14.7132 21.8328C14.7188 21.7471 14.6741 21.736 14.6014 21.7453C14.3965 21.7695 14.1934 21.7881 13.9885 21.8142C13.9252 21.8216 13.8898 21.8086 13.8767 21.762C13.8767 21.7583 13.8749 21.7546 13.873 21.749C13.873 21.7434 13.8712 21.7378 13.8712 21.7322C13.8712 21.7266 13.8712 21.7211 13.8712 21.7155C13.8413 21.2069 13.8078 20.6984 13.7724 20.1899C13.7724 20.1843 13.7724 20.1805 13.7724 20.175C13.7687 20.1321 13.7761 20.1042 13.7948 20.0855C13.8115 20.0688 13.8395 20.0595 13.8767 20.0557C14.8697 19.9514 15.8608 19.8434 16.8518 19.7372C17.0325 19.7186 17.0325 19.7186 17.0437 19.8955C17.1108 20.9163 17.1778 21.9371 17.243 22.9561C17.271 23.4069 17.243 23.8521 17.0847 24.2805L17.0828 24.273ZM16.714 19.3032C16.686 19.3348 16.6432 19.3125 16.6078 19.3069C16.1905 19.2454 15.7751 19.1635 15.3559 19.1281C15.1249 19.1076 14.8883 19.1672 14.6554 19.1914C14.2139 19.238 13.7724 19.2846 13.3309 19.3367C13.234 19.3479 13.2024 19.3237 13.1986 19.2231C13.1856 18.9064 13.1614 18.5897 13.1409 18.2638C13.1036 18.1669 13.1781 18.1594 13.2527 18.152C13.8004 18.0942 14.3499 18.0346 14.8976 17.9769C15.2981 17.934 15.6987 17.8949 16.0992 17.8465C16.1756 17.8372 16.2054 17.8558 16.2296 17.9229C16.3842 18.3532 16.5426 18.7797 16.6991 19.21C16.7102 19.2398 16.74 19.2752 16.7158 19.3032H16.714ZM26.4011 20.4488C26.688 20.4898 26.9749 20.4935 27.2618 20.4767C27.3345 20.473 27.3438 20.4935 27.3475 20.5587C27.3624 20.8232 27.381 21.0858 27.4034 21.3504C27.409 21.423 27.3829 21.4416 27.3214 21.4472C26.675 21.5143 26.0304 21.5851 25.384 21.654C25.0468 21.6894 24.7077 21.7211 24.3706 21.7639C24.2755 21.7769 24.2346 21.7639 24.1973 21.6652C23.97 21.0356 23.7353 20.4097 23.5006 19.7838C23.4931 19.7633 23.4801 19.7447 23.4913 19.7018C23.808 20.0334 24.2197 20.1302 24.6481 20.1899C25.2331 20.2718 25.8162 20.3612 26.3993 20.4469L26.4011 20.4488ZM24.8586 24.5376C24.0818 24.6177 23.305 24.7033 22.53 24.7872C22.4257 24.7984 22.3213 24.8095 22.217 24.8207C22.1276 24.8282 22.1276 24.7555 22.1108 24.7015C21.9879 24.2991 21.8668 23.8949 21.7457 23.4907C21.6693 23.2336 21.5892 22.9766 21.5166 22.7176C21.4923 22.6301 21.4476 22.6077 21.3619 22.6189C21.1608 22.645 21.1626 22.6431 21.1328 22.8387C21.0285 23.513 20.9204 24.1892 20.8142 24.8635C20.8012 24.9492 20.7584 24.979 20.6745 24.9884C19.8306 25.0778 18.9886 25.169 18.1447 25.2585C17.9696 25.2771 17.9696 25.2771 18.0068 25.1094C18.3664 23.4888 18.7241 21.8664 19.0836 20.2457C19.1078 20.134 19.106 20.0297 19.0668 19.9179C18.5378 18.4705 18.0124 17.0213 17.4852 15.572C17.4163 15.382 17.4163 15.3802 17.61 15.3597C18.3943 15.2759 19.1786 15.1958 19.961 15.1064C20.0728 15.0933 20.0858 15.1585 20.1063 15.2312C20.2964 15.8682 20.4845 16.5053 20.6727 17.1424C20.7248 17.3175 20.7807 17.4926 20.8273 17.6677C20.8478 17.7422 20.885 17.7589 20.9577 17.7534C21.157 17.7366 21.1608 17.7385 21.1924 17.5373C21.3228 16.7232 21.4495 15.9073 21.5762 15.0933C21.6004 14.935 21.6023 14.9331 21.7606 14.9164C22.5356 14.8325 23.3124 14.7506 24.0893 14.6649C24.229 14.65 24.2383 14.6593 24.2066 14.799C23.8638 16.3786 23.5229 17.9564 23.1802 19.536C23.1615 19.6217 23.182 19.6981 23.21 19.7763C23.6515 20.9629 24.093 22.1476 24.5345 23.3342C24.6668 23.69 24.799 24.0477 24.9332 24.4034C24.9667 24.491 24.9536 24.5264 24.8512 24.5376H24.8586ZM31.1441 23.7328C30.7753 23.8875 30.3822 23.9433 29.9873 23.9843C29.0111 24.0886 28.0331 24.193 27.0569 24.2991C26.5744 24.3513 26.0919 24.4034 25.6094 24.4575C25.5423 24.4649 25.5144 24.4426 25.5107 24.3755C25.4734 23.7645 25.4343 23.1535 25.3914 22.5425C25.3858 22.4606 25.4082 22.427 25.4976 22.4177C26.824 22.278 28.1504 22.1346 29.475 21.9949C29.5849 21.9837 29.6184 21.9464 29.6109 21.8347C29.5681 21.2498 29.529 20.6667 29.4954 20.08C29.4899 19.9794 29.447 19.9645 29.3613 19.9738C28.8676 20.0297 28.374 20.0837 27.8803 20.1358C27.4127 20.1861 26.9451 20.2364 26.4719 20.1694C25.7305 20.0669 25.3002 19.6292 25.2461 18.8822C25.1753 17.9303 25.1064 16.9766 25.0636 16.0228C25.0375 15.4547 25.2722 15.0076 25.8031 14.7468C26.2651 14.5214 26.7625 14.4153 27.2655 14.3408C28.0703 14.2215 28.8825 14.1582 29.6929 14.0651C30.0636 14.0222 30.4362 13.9887 30.8069 13.944C30.9168 13.9309 30.9485 13.9663 30.9541 14.0725C30.9876 14.6574 31.0249 15.2423 31.0677 15.8272C31.0752 15.9353 31.0305 15.9576 30.9373 15.9688C29.8382 16.0862 28.7391 16.2054 27.64 16.3209C27.5412 16.3321 27.517 16.3656 27.5226 16.4606C27.5655 17.0716 27.6046 17.6826 27.6418 18.2936C27.6474 18.383 27.6866 18.3867 27.7573 18.3792C28.2808 18.3215 28.8043 18.2656 29.3278 18.2116C29.7358 18.1688 30.1437 18.111 30.5554 18.1725C31.3137 18.2842 31.7757 18.7462 31.8427 19.5118C31.9005 20.1694 31.934 20.8288 31.9787 21.4882C32.0011 21.8347 32.0216 22.1812 32.0402 22.4568C32.0178 23.1368 31.6788 23.5093 31.1423 23.7366L31.1441 23.7328Z" fill="#131934"/>
<path d="M24.5322 23.332C24.0907 22.1454 23.6492 20.9607 23.2076 19.7741C23.1778 19.6958 23.1592 19.6195 23.1778 19.5338C23.5206 17.9541 23.8634 16.3764 24.2043 14.7967C24.2341 14.6552 24.2267 14.6477 24.0869 14.6626C23.3101 14.7465 22.5351 14.8303 21.7583 14.9141C21.5999 14.9309 21.5981 14.9327 21.5739 15.0911C21.4472 15.907 21.3205 16.721 21.1901 17.535C21.1584 17.7381 21.1547 17.7343 20.9554 17.753C20.8846 17.7586 20.8455 17.7418 20.8268 17.6673C20.7784 17.4903 20.7225 17.3171 20.6722 17.142C20.4841 16.5049 20.294 15.8678 20.1059 15.2308C20.0854 15.16 20.0723 15.0929 19.9606 15.106C19.1781 15.1954 18.3939 15.2755 17.6096 15.3593C17.414 15.3798 17.4158 15.3817 17.4848 15.5717C18.012 17.0209 18.5354 18.4701 19.0664 19.9175C19.1074 20.0293 19.1092 20.1317 19.085 20.2454C18.7255 21.866 18.3659 23.4884 18.0064 25.109C17.9691 25.2748 17.971 25.2767 18.1442 25.2581C18.9881 25.1668 19.8302 25.0755 20.6741 24.988C20.756 24.9787 20.7989 24.9488 20.8138 24.8632C20.9181 24.1888 21.0262 23.5145 21.1323 22.8383C21.1622 22.6427 21.1603 22.6446 21.3615 22.6185C21.4472 22.6073 21.4919 22.6316 21.5161 22.7172C21.5888 22.9762 21.667 23.2332 21.7452 23.4903C21.8663 23.8945 21.9874 24.2969 22.1104 24.7011C22.1271 24.7533 22.1271 24.8278 22.2166 24.8203C22.3209 24.8091 22.4252 24.798 22.5277 24.7868C23.3045 24.703 24.0795 24.6173 24.8563 24.5372C24.9588 24.526 24.9718 24.4925 24.9383 24.4031C24.8023 24.0473 24.6719 23.6896 24.5396 23.3338L24.5322 23.332Z" fill="#FFDB3B"/>
<path d="M13.7725 20.2362C13.8042 20.7131 13.8358 21.19 13.8638 21.6668V21.6724C13.8638 21.6817 13.8638 21.691 13.8638 21.6985C13.8638 21.7078 13.8638 21.7171 13.8657 21.7264C13.8657 21.732 13.8657 21.7376 13.8675 21.7432C13.8675 21.7488 13.8675 21.7525 13.8712 21.7562C13.8861 21.8028 13.9197 21.8177 13.983 21.8084C14.1879 21.7823 14.391 21.7656 14.5959 21.7395C14.6686 21.7302 14.7133 21.7413 14.7077 21.827C14.7058 21.8531 14.7133 21.8792 14.7151 21.9053C14.7487 22.4268 14.7803 22.9484 14.8195 23.47C14.8269 23.5631 14.7841 23.5836 14.7058 23.5911C14.255 23.6376 13.806 23.6824 13.3571 23.7345C13.2509 23.7475 13.2229 23.7159 13.2174 23.6134C13.1764 22.9168 13.1317 22.2201 13.0851 21.5234C13.0087 20.3554 12.9323 19.1893 12.8522 18.0214C12.8504 17.9823 12.8466 17.9432 12.8448 17.904C13.018 17.8854 13.1913 17.8686 13.3645 17.85C13.8861 17.796 14.4059 17.7401 14.9257 17.6824C15.4938 17.6209 16.062 17.5576 16.6302 17.4998C16.7252 17.4905 16.7513 17.4532 16.7401 17.3638C16.7383 17.3433 16.7364 17.3229 16.7345 17.3005C16.7327 17.2819 16.7308 17.2632 16.7308 17.2446C16.7271 17.1776 16.7252 17.1105 16.7215 17.0453C16.7178 16.9838 16.7103 16.9224 16.6992 16.8627C16.6209 16.4604 16.6004 16.0487 16.6246 15.6408C16.6246 15.6203 16.6246 15.6017 16.6246 15.5868C16.6246 15.5812 16.6246 15.5756 16.6246 15.57C16.6246 15.5644 16.6246 15.5588 16.6246 15.5532C16.6246 15.5495 16.6246 15.5458 16.6228 15.542C16.619 15.5253 16.6153 15.5122 16.6079 15.5011C16.606 15.4973 16.6041 15.4955 16.6004 15.4917C16.5967 15.488 16.593 15.4843 16.5892 15.4824C16.5892 15.4824 16.5892 15.4824 16.5874 15.4824C16.5818 15.4806 16.5762 15.4768 16.5725 15.4768C16.5538 15.4713 16.5296 15.4713 16.5017 15.4768C16.3899 15.4917 16.2781 15.5029 16.1664 15.5141C15.0859 15.6315 14.0054 15.7488 12.9249 15.8624C12.4741 15.9109 12.0232 15.9556 11.5966 16.1121C11.1812 16.2648 10.8272 16.4939 10.6167 16.9C10.4323 17.2577 10.3895 17.647 10.3652 18.0642C10.3671 18.1928 10.3727 18.325 10.3783 18.4554C10.3801 18.5281 10.3857 18.5989 10.3895 18.6715C10.4118 19.0906 10.4435 19.5153 10.4714 19.94C10.4789 20.0295 10.4826 20.117 10.4882 20.2064C10.49 20.2455 10.4938 20.2828 10.4956 20.32C10.4994 20.389 10.5031 20.4598 10.5068 20.5287C10.5478 21.3129 10.6018 22.0971 10.6614 22.8795V22.8869C10.6708 23.0118 10.6782 23.1384 10.6838 23.2651C10.6894 23.3564 10.695 23.4458 10.7006 23.5371C10.7024 23.5799 10.7061 23.6209 10.7099 23.6637C10.7117 23.6842 10.7136 23.7047 10.7155 23.7252C10.7173 23.7513 10.7211 23.7755 10.7229 23.8016C10.7248 23.8202 10.7266 23.8407 10.7285 23.8593C10.7322 23.8854 10.7341 23.9133 10.7397 23.9394C10.7509 24.0195 10.7639 24.0996 10.7788 24.1816C10.8719 24.6454 11.0415 25.072 11.4122 25.3868C11.8444 25.7556 12.3623 25.8469 12.9044 25.804C13.5415 25.7556 14.1749 25.6774 14.8102 25.6103C15.1604 25.5731 15.5087 25.5377 15.8441 25.4222C16.4272 25.221 16.8556 24.8559 17.0736 24.2673C17.2319 23.8388 17.2599 23.3936 17.2319 22.9428C17.1667 21.922 17.0997 20.9012 17.0326 19.8823C17.0214 19.7053 17.0233 19.7053 16.8407 19.724C15.8497 19.8301 14.8586 19.9382 13.8657 20.0425C13.8284 20.0462 13.8005 20.0555 13.7837 20.0723C13.7651 20.0909 13.7576 20.1189 13.7613 20.1617C13.7613 20.1673 13.7613 20.171 13.7613 20.1766C13.7613 20.1859 13.7632 20.1952 13.7651 20.2046V20.2064" fill="#FFDB3B"/>
<path d="M31.9737 21.4841C31.9309 20.8247 31.8955 20.1653 31.8377 19.5077C31.7707 18.7421 31.3087 18.2783 30.5505 18.1684C30.1369 18.1069 29.7308 18.1665 29.3228 18.2075C28.7993 18.2615 28.2759 18.3174 27.7524 18.3752C27.6834 18.3826 27.6425 18.3789 27.6369 18.2895C27.6015 17.6785 27.5605 17.0675 27.5195 16.4565C27.5121 16.3615 27.5363 16.328 27.635 16.3168C28.7341 16.2013 29.8332 16.0821 30.9324 15.9647C31.0274 15.9554 31.0702 15.9331 31.0628 15.8232C31.0199 15.2383 30.9827 14.6533 30.9491 14.0684C30.9435 13.9623 30.9119 13.925 30.802 13.938C30.4312 13.9827 30.0587 14.0181 29.6879 14.061C28.8794 14.1541 28.0672 14.2175 27.2606 14.3367C26.7576 14.4112 26.2602 14.5174 25.7982 14.7428C25.2672 15.0017 25.0325 15.4506 25.0586 16.0188C25.1014 16.9725 25.1722 17.9262 25.2412 18.8781C25.297 19.6251 25.7255 20.061 26.467 20.1653C26.9401 20.2305 27.4059 20.182 27.8753 20.1318C28.369 20.0796 28.8627 20.0256 29.3563 19.9697C29.442 19.9604 29.4849 19.9753 29.4905 20.0759C29.524 20.6608 29.5613 21.2457 29.606 21.8306C29.6134 21.9424 29.5799 21.9778 29.47 21.9908C28.1436 22.1305 26.8172 22.2739 25.4908 22.4136C25.3995 22.423 25.379 22.4565 25.3846 22.5403C25.4256 23.1513 25.4647 23.7623 25.5038 24.3733C25.5076 24.4422 25.5355 24.4627 25.6026 24.4552C26.0851 24.4012 26.5676 24.3491 27.0501 24.2969C28.0262 24.1926 29.0043 24.0864 29.9804 23.9821C30.3754 23.9393 30.7666 23.8852 31.1373 23.7306C31.6738 23.5052 32.0129 23.1308 32.0352 22.4509C32.0185 22.1752 31.9961 21.8287 31.9737 21.4823V21.4841Z" fill="#FFDB3B"/>
</svg>
