<?xml version="1.0" encoding="UTF-8"?>
<svg id="_圖層_2" data-name="圖層 2" xmlns="http://www.w3.org/2000/svg" xmlns:xlink="http://www.w3.org/1999/xlink" viewBox="0 0 226.77 226.77">
  <defs>
    <style>
      .cls-1 {
        fill: #ebeefe;
      }

      .cls-2 {
        fill: url(#_未命名漸層_3);
      }
    </style>
    <linearGradient id="_未命名漸層_3" data-name="未命名漸層 3" x1="62.94" y1="79.69" x2="162.95" y2="179.7" gradientUnits="userSpaceOnUse">
      <stop offset="0" stop-color="#5d59fa"/>
      <stop offset="1" stop-color="#67cbf3"/>
    </linearGradient>
  </defs>
  <g id="_圖層_1-2" data-name="圖層 1">
    <rect class="cls-1" x="0" y="0" width="226.77" height="226.77" rx="113.39" ry="113.39"/>
    <g id="jLF1d3.tif">
      <path class="cls-2" d="M113.13,170.13c-18.91,0-37.82-.03-56.73,.03-2.59,0-4.21-.88-5.44-3.24-3.11-6-6.42-11.9-9.74-17.79-.88-1.56-.85-2.9,.01-4.41,4.55-7.93,9.06-15.88,13.58-23.83,11.74-20.65,23.49-41.31,35.23-61.96,2.64-4.64,5.32-9.24,7.89-13.92,.89-1.62,2.14-2.39,3.9-2.4,7.38-.02,14.77-.01,22.15,0,1.76,0,2.84,.94,3.72,2.44,10.77,18.47,21.58,36.91,32.39,55.36,8.47,14.46,16.93,28.93,25.44,43.37,.91,1.55,.87,2.87,0,4.4-3.73,6.54-7.42,13.09-11.06,19.67-.89,1.6-2.05,2.3-3.89,2.29-19.15-.04-38.3-.02-57.44-.02h0Zm-22.89-27.31c12.43,0,24.86,0,37.29,0,1.75,0,1.74,0,.95-1.46-1.63-3.01-3.33-5.99-4.85-9.06-.8-1.62-1.81-2.2-3.66-2.18-14.43,.09-28.86,.06-43.29,.05-2.51,0-3.31-1.23-2.14-3.31,3.95-7.05,7.95-14.08,11.92-21.13,3.42-6.07,6.83-12.16,10.23-18.24,2.87-5.13,5.72-10.28,8.59-15.41,3.78-6.74,7.57-13.48,11.37-20.21,.51-.9,.36-1.27-.72-1.27-3.66-.03-7.33-.07-10.99-.16-.84-.02-1.27,.3-1.67,1.01-2.96,5.27-5.97,10.52-8.96,15.77-14.05,24.7-28.1,49.41-42.15,74.11-.23,.4-.73,.83-.5,1.26,.28,.53,.95,.24,1.44,.24,12.38,.02,24.76,.01,37.14,.01Zm20.63,19.46h0c17.33,0,34.67,0,52-.01,.45,0,1.08,.24,1.33-.19,.25-.44-.27-.86-.5-1.25-4.93-8.48-9.88-16.94-14.83-25.41-7.87-13.48-15.76-26.96-23.61-40.46-.51-.88-.8-1.25-1.41-.06-1.69,3.31-3.44,6.58-5.2,9.85-.43,.8-.44,1.46,0,2.26,3.12,5.67,6.21,11.36,9.3,17.05,4.2,7.74,8.39,15.49,12.58,23.23,.45,.83,.78,1.69,.12,2.54-.62,.79-1.55,.95-2.46,.78-.95-.18-1.89-.16-2.84-.17-9.62,0-19.24,0-28.86,0-17.95,0-35.91,0-53.86,0-1.67,0-1.71,.09-.92,1.52,1.56,2.84,3.18,5.65,4.64,8.53,.66,1.3,1.44,1.83,2.96,1.82,17.19-.06,34.38-.04,51.57-.04Zm66.83-16.31c-.2-.37-.37-.71-.56-1.04-17.35-29.61-34.7-59.23-52.06-88.84-.28-.48-.47-1.29-.97-1.32-.66-.03-.79,.83-1.08,1.34-12.09,21.59-24.17,43.2-36.24,64.8-.72,1.29-.66,1.42,.83,1.43,4.05,.02,8.1-.01,12.14,.05,.81,.01,1.16-.3,1.51-.96,6.98-13.38,14-26.74,20.99-40.11,.44-.84,.88-1.6,1.96-1.62,1.08-.02,1.57,.73,2.04,1.53,2.85,4.9,5.7,9.79,8.56,14.68,11.84,20.26,23.68,40.52,35.5,60.78,.56,.97,.87,1.09,1.45,.01,1.78-3.26,3.62-6.48,5.44-9.72,.18-.33,.33-.67,.5-1.02Zm-63.98-31.71c-1.37,2.66-2.58,4.97-3.75,7.29-.37,.73,.19,.79,.7,.79,2.09,0,4.18,0,6.28,0,.87,0,.98-.35,.59-1.05-1.21-2.2-2.4-4.41-3.83-7.03Z"/>
    </g>
  </g>
</svg>